{"title":"YG Ft. Drake - Who Do You Love [Explicit] 720p [Sbyky]","uid":11426504,"size":67403444,"categoryP":"video","categoryS":"music_videos","magnet":"?xt=urn:btih:24ae1b63029c5b4ab0b615e6bc40fe9a14ff7f1a&amp;dn=YG+Ft.+Drake+-+Who+Do+You+Love+%5BExplicit%5D+720p+%5BSbyky%5D&amp;tr=udp%3A%2F%2Ftracker.openbittorrent.com%3A80&amp;tr=udp%3A%2F%2Fopen.demonii.com%3A1337&amp;tr=udp%3A%2F%2Ftracker.coppersurfer.tk%3A6969&amp;tr=udp%3A%2F%2Fexodus.desync.com%3A6969","seeders":1,"leechers":1,"uploader":"Sbyky","files":1,"time":1415670127,"description":"General\nComplete name                            : YG Ft. Drake - Who Do You Love [Explicit] 720p [Sbyky].MP4\nFormat                                   : MPEG-4\nFormat profile                           : Base Media\nCodec ID                                 : isom\nFile size                                : 64.3 MiB\nDuration                                 : 5mn 1s\nOverall bit rate mode                    : Variable\nOverall bit rate                         : 1 786 Kbps\nEncoded date                             : UTC 2014-03-05 13:59:50\nTagged date                              : UTC 2014-03-05 13:59:50\n\nVideo\nID                                       : 1\nFormat                                   : AVC\nFormat/Info                              : Advanced Video Codec\nFormat profile                           : &lt;a class=&quot;__cf_email__&quot; href=&quot;/cdn-cgi/l/email-protection&quot; data-cfemail=&quot;5d103c34331d116e736c&quot;&gt;[email&amp;#160;protected]&lt;/a&gt;&lt;script cf-hash='f9e31' type=&quot;text/javascript&quot;&gt;\n/* &lt;![CDATA[ */!function(){try{var t=&quot;currentScript&quot;in document?document.currentScript:function(){for(var t=document.getElementsByTagName(&quot;script&quot;),e=t.length;e--;)if(t[e].getAttribute(&quot;cf-hash&quot;))return t[e]}();if(t&amp;&amp;t.previousSibling){var e,r,n,i,c=t.previousSibling,a=c.getAttribute(&quot;data-cfemail&quot;);if(a){for(e=&quot;&quot;,r=parseInt(a.substr(0,2),16),n=2;a.length-n;n+=2)i=parseInt(a.substr(n,2),16)^r,e+=String.fromCharCode(i);e=document.createTextNode(e),c.parentNode.replaceChild(e,c)}}}catch(u){}}();/* ]]&gt; */&lt;/script&gt;\nFormat settings, CABAC                   : Yes\nFormat settings, ReFrames                : 3 frames\nCodec ID                                 : avc1\nCodec ID/Info                            : Advanced Video Coding\nDuration                                 : 5mn 1s\nBit rate                                 : 1 657 Kbps\nWidth                                    : 1 280 pixels\nHeight                                   : 720 pixels\nDisplay aspect ratio                     : 16:9\nFrame rate mode                          : Variable\nFrame rate                               : 23.976 fps\nMinimum frame rate                       : 23.974 fps\nMaximum frame rate                       : 24.344 fps\nColor space                              : YUV\nChroma subsampling                       : 4:2:0\nBit depth                                : 8 bits\nScan type                                : Progressive\nBits/(Pixel*Frame)                       : 0.075\nStream size                              : 59.6 MiB (93%)\nEncoded date                             : UTC 2014-03-05 13:59:50\nTagged date                              : UTC 2014-03-05 13:59:50\n\nAudio\nID                                       : 2\nFormat                                   : AAC\nFormat/Info                              : Advanced Audio Codec\nFormat profile                           : LC\nCodec ID                                 : 40\nDuration                                 : 5mn 1s\nBit rate mode                            : Variable\nBit rate                                 : 126 Kbps\nChannel(s)                               : 2 channels\nChannel positions                        : Front: L R\nSampling rate                            : 44.1 KHz\nCompression mode                         : Lossy\nStream size                              : 4.52 MiB (7%)\nEncoded date                             : UTC 2014-03-05 13:59:30\nTagged date                              : UTC 2014-03-05 13:59:30\n\nShared By Sbyky","torrent":{"xt":"urn:btih:24ae1b63029c5b4ab0b615e6bc40fe9a14ff7f1a","amp;dn":"YG+Ft.+Drake+-+Who+Do+You+Love+%5BExplicit%5D+720p+%5BSbyky%5D","amp;tr":["udp%3A%2F%2Ftracker.openbittorrent.com%3A80","udp%3A%2F%2Fopen.demonii.com%3A1337","udp%3A%2F%2Ftracker.coppersurfer.tk%3A6969","udp%3A%2F%2Fexodus.desync.com%3A6969"],"infoHash":"24ae1b63029c5b4ab0b615e6bc40fe9a14ff7f1a","infoHashBuffer":{"type":"Buffer","data":[36,174,27,99,2,156,91,74,176,182,21,230,188,64,254,154,20,255,127,26]},"announce":[],"urlList":[]}}